<?xml version="1.0" encoding="utf-8"?>
<!-- Generator: Adobe Illustrator 25.2.3, SVG Export Plug-In . SVG Version: 6.00 Build 0)  -->
<svg version="1.1" id="Layer_1" xmlns="http://www.w3.org/2000/svg" xmlns:xlink="http://www.w3.org/1999/xlink" x="0px" y="0px"
	 viewBox="0 0 1920 1080" style="enable-background:new 0 0 1920 1080;" xml:space="preserve">
<style type="text/css">
	.st0{fill:#15192A;}
	.st1{fill:#F7A600;}
	.st2{fill:#FFFFFF;stroke:#000000;stroke-miterlimit:10;}
	.st3{fill:#8A8C94;}
	.st4{fill:none;stroke:#808080;stroke-miterlimit:10;}
	.st5{fill:#FFFFFF;}
</style>
<path class="st1" d="M967.15,588.14v-166h32.41v166H967.15z"/>
<g>
	<path class="st0" d="M589.48,637.44H520v-166h66.68c32.41,0,51.29,18.18,51.29,46.63c0,18.42-12.12,30.31-20.52,34.27
		c10.03,4.66,22.85,15.15,22.85,37.3C640.3,620.66,619.09,637.44,589.48,637.44z M584.11,500.36h-31.71v38.24h31.71
		c13.76,0,21.45-7.69,21.45-19.12C605.56,508.05,597.87,500.36,584.11,500.36z M586.21,567.74h-33.81v40.8h33.81
		c14.69,0,21.68-9.33,21.68-20.52C607.89,576.83,600.9,567.74,586.21,567.74z"/>
	<path class="st0" d="M739.15,569.37v68.08h-32.17v-68.08l-49.89-97.92h35.2l31.01,66.91l30.54-66.91h35.2L739.15,569.37z"/>
	<path class="st0" d="M880.9,637.44h-69.48v-166h66.68c32.41,0,51.29,18.18,51.29,46.63c0,18.42-12.12,30.31-20.52,34.27
		c10.03,4.66,22.85,15.15,22.85,37.3C931.72,620.66,910.5,637.44,880.9,637.44z M875.53,500.36h-31.71v38.24h31.71
		c13.76,0,21.45-7.69,21.45-19.12C896.98,508.05,889.29,500.36,875.53,500.36z M877.63,567.74h-33.81v40.8h33.81
		c14.69,0,21.68-9.33,21.68-20.52C899.31,576.83,892.32,567.74,877.63,567.74z"/>
	<path class="st0" d="M1104,500.36v137.09h-32.41V500.36h-43.36v-28.91h119.14v28.91H1104z"/>
</g>
<g>
	<path class="st3" d="M1236.61,512.39l-16.22-25.14v25.14h-8v-40.96h7.13l16.22,25.08v-25.08h8v40.96H1236.61z"/>
	<path class="st3" d="M1257.44,499.73c0,3.85,2.36,6.67,6.56,6.67c3.28,0,4.89-0.92,6.79-2.82l4.54,4.43
		c-3.05,3.05-5.98,4.72-11.39,4.72c-7.08,0-13.86-3.22-13.86-15.36c0-9.78,5.29-15.3,13.06-15.3c8.34,0,13.06,6.1,13.06,14.32v3.34
		H1257.44z M1268.14,491.39c-0.81-1.78-2.47-3.11-5-3.11c-2.53,0-4.2,1.32-5,3.11c-0.46,1.09-0.63,1.9-0.69,3.22h11.39
		C1268.77,493.29,1268.6,492.48,1268.14,491.39z"/>
	<path class="st3" d="M1299.2,512.39l-5.52-8.97l-5.47,8.97h-8.97l10.35-15.3l-9.95-14.67h8.97l5.06,8.57l5.12-8.57h8.97
		l-9.95,14.67l10.35,15.3H1299.2z"/>
	<path class="st3" d="M1323.59,512.39c-6.1,0-8.69-4.31-8.69-8.57v-14.84h-3.16v-5.69h3.16v-8.86h7.48v8.86h5.29v5.69h-5.29v14.38
		c0,1.73,0.81,2.7,2.59,2.7h2.7v6.33H1323.59z"/>
	<path class="st3" d="M1212.39,575.48v-40.96h8v33.83h18.58v7.13H1212.39z"/>
	<path class="st3" d="M1250.76,562.82c0,3.85,2.36,6.67,6.56,6.67c3.28,0,4.89-0.92,6.79-2.82l4.54,4.43
		c-3.05,3.05-5.98,4.72-11.39,4.72c-7.08,0-13.86-3.22-13.86-15.36c0-9.78,5.29-15.3,13.06-15.3c8.34,0,13.06,6.1,13.06,14.32v3.34
		H1250.76z M1261.46,554.48c-0.81-1.78-2.47-3.11-5-3.11c-2.53,0-4.2,1.32-5,3.11c-0.46,1.09-0.63,1.9-0.69,3.22h11.39
		C1262.1,556.38,1261.92,555.57,1261.46,554.48z"/>
	<path class="st3" d="M1288.79,575.48h-5.87l-11.04-29.97h7.88l6.1,18.52l6.04-18.52h7.88L1288.79,575.48z"/>
	<path class="st3" d="M1308.35,562.82c0,3.85,2.36,6.67,6.56,6.67c3.28,0,4.89-0.92,6.79-2.82l4.54,4.43
		c-3.05,3.05-5.98,4.72-11.39,4.72c-7.08,0-13.86-3.22-13.86-15.36c0-9.78,5.29-15.3,13.06-15.3c8.34,0,13.06,6.1,13.06,14.32v3.34
		H1308.35z M1319.05,554.48c-0.81-1.78-2.47-3.11-5-3.11c-2.53,0-4.2,1.32-5,3.11c-0.46,1.09-0.63,1.9-0.69,3.22h11.39
		C1319.68,556.38,1319.51,555.57,1319.05,554.48z"/>
	<path class="st3" d="M1341.31,575.48c-6.16,0-8.74-4.31-8.74-8.57v-32.39h7.48v31.93c0,1.78,0.75,2.7,2.65,2.7h2.88v6.33H1341.31z"
		/>
	<path class="st3" d="M1228.04,604.74v33.83h-8v-33.83h-10.7v-7.13h29.4v7.13H1228.04z"/>
	<path class="st3" d="M1259.85,616.77c-1.15-1.15-2.13-1.78-3.97-1.78c-2.3,0-4.83,1.73-4.83,5.52v18.06h-7.48V608.6h7.31v2.88
		c1.44-1.73,4.31-3.22,7.54-3.22c2.93,0,5,0.75,7.08,2.82L1259.85,616.77z"/>
	<path class="st3" d="M1284.53,638.57v-2.59c-2.01,2.01-3.91,2.88-7.36,2.88c-3.39,0-5.87-0.86-7.65-2.65
		c-1.61-1.67-2.47-4.08-2.47-6.73c0-4.77,3.28-8.69,10.24-8.69h7.08v-1.5c0-3.28-1.61-4.72-5.58-4.72c-2.88,0-4.2,0.69-5.75,2.47
		l-4.77-4.66c2.93-3.22,5.81-4.14,10.81-4.14c8.4,0,12.77,3.57,12.77,10.58v19.73H1284.53z M1284.36,625.91h-5.93
		c-2.7,0-4.2,1.27-4.2,3.39c0,2.07,1.38,3.45,4.31,3.45c2.07,0,3.39-0.17,4.72-1.44c0.81-0.75,1.09-1.96,1.09-3.8V625.91z"/>
	<path class="st3" d="M1314.16,638.57v-2.82c-2.07,2.3-4.26,3.16-7.42,3.16c-2.93,0-5.69-1.04-7.36-2.7
		c-2.99-2.99-3.05-8.17-3.05-12.66s0.06-9.61,3.05-12.6c1.67-1.67,4.37-2.7,7.31-2.7c3.05,0,5.35,0.81,7.31,2.99v-13.63h7.48v40.96
		H1314.16z M1308.87,614.98c-4.49,0-5.06,3.68-5.06,8.57s0.58,8.63,5.06,8.63c4.49,0,5.12-3.74,5.12-8.63
		S1313.35,614.98,1308.87,614.98z"/>
	<path class="st3" d="M1328.6,603.48v-6.1h7.65v6.1H1328.6z M1328.71,638.57V608.6h7.48v29.97H1328.71z"/>
	<path class="st3" d="M1359.66,638.57v-18.12c0-4.08-2.59-5.46-4.95-5.46c-2.36,0-5,1.38-5,5.46v18.12h-7.48V608.6h7.31v2.76
		c1.96-2.07,4.72-3.11,7.48-3.11c2.99,0,5.41,0.98,7.08,2.65c2.42,2.42,3.05,5.23,3.05,8.51v19.16H1359.66z"/>
	<path class="st3" d="M1385.55,649.9c-4.6,0-7.77-0.92-10.87-3.91l4.66-4.72c1.67,1.61,3.34,2.3,5.87,2.3
		c4.49,0,6.04-3.16,6.04-6.21v-3.05c-1.96,2.19-4.2,2.99-7.13,2.99c-2.93,0-5.46-0.98-7.13-2.65c-2.82-2.82-3.05-6.67-3.05-11.91
		s0.23-9.03,3.05-11.85c1.67-1.67,4.26-2.65,7.19-2.65c3.16,0,5.23,0.86,7.31,3.16v-2.82h7.25v28.88
		C1398.72,644.66,1393.6,649.9,1385.55,649.9z M1386.3,614.98c-4.43,0-4.89,3.8-4.89,7.77s0.46,7.82,4.89,7.82
		c4.43,0,4.95-3.85,4.95-7.82S1390.73,614.98,1386.3,614.98z"/>
</g>
</svg>
